<svg xmlns="http://www.w3.org/2000/svg" viewBox="0 0 640 320" width="640" height="320" role="img" aria-hidden="true">
<defs>
<linearGradient id="bg" x1="0" y1="0" x2="1" y2="1"><stop offset="0" stop-color="#1a0b12"/><stop offset="0.55" stop-color="#fb7185" stop-opacity="0.55"/><stop offset="1" stop-color="#f97316" stop-opacity="0.75"/></linearGradient>
<radialGradient id="g"><stop offset="0" stop-color="#8b5cf6" stop-opacity="0.95"/><stop offset="1" stop-color="#8b5cf6" stop-opacity="0"/></radialGradient>
</defs>
<rect width="640" height="320" fill="#1a0b12"/><rect width="640" height="320" fill="url(#bg)"/>
<rect x="0" y="144" width="640" height="176" fill="#05060f" opacity="0.7"/><circle cx="320" cy="144" r="90" fill="url(#g)"/><line x1="320" y1="144" x2="-760" y2="320" stroke="#f97316" stroke-width="1" opacity="0.55"/><line x1="320" y1="144" x2="-670" y2="320" stroke="#f97316" stroke-width="1" opacity="0.55"/><line x1="320" y1="144" x2="-580" y2="320" stroke="#f97316" stroke-width="1" opacity="0.55"/><line x1="320" y1="144" x2="-490" y2="320" stroke="#f97316" stroke-width="1" opacity="0.55"/><line x1="320" y1="144" x2="-400" y2="320" stroke="#f97316" stroke-width="1" opacity="0.55"/><line x1="320" y1="144" x2="-310" y2="320" stroke="#f97316" stroke-width="1" opacity="0.55"/><line x1="320" y1="144" x2="-220" y2="320" stroke="#f97316" stroke-width="1" opacity="0.55"/><line x1="320" y1="144" x2="-130" y2="320" stroke="#f97316" stroke-width="1" opacity="0.55"/><line x1="320" y1="144" x2="-40" y2="320" stroke="#f97316" stroke-width="1" opacity="0.55"/><line x1="320" y1="144" x2="50" y2="320" stroke="#f97316" stroke-width="1" opacity="0.55"/><line x1="320" y1="144" x2="140" y2="320" stroke="#f97316" stroke-width="1" opacity="0.55"/><line x1="320" y1="144" x2="230" y2="320" stroke="#f97316" stroke-width="1" opacity="0.55"/><line x1="320" y1="144" x2="320" y2="320" stroke="#f97316" stroke-width="1" opacity="0.55"/><line x1="320" y1="144" x2="410" y2="320" stroke="#f97316" stroke-width="1" opacity="0.55"/><line x1="320" y1="144" x2="500" y2="320" stroke="#f97316" stroke-width="1" opacity="0.55"/><line x1="320" y1="144" x2="590" y2="320" stroke="#f97316" stroke-width="1" opacity="0.55"/><line x1="320" y1="144" x2="680" y2="320" stroke="#f97316" stroke-width="1" opacity="0.55"/><line x1="320" y1="144" x2="770" y2="320" stroke="#f97316" stroke-width="1" opacity="0.55"/><line x1="320" y1="144" x2="860" y2="320" stroke="#f97316" stroke-width="1" opacity="0.55"/><line x1="320" y1="144" x2="950" y2="320" stroke="#f97316" stroke-width="1" opacity="0.55"/><line x1="320" y1="144" x2="1040" y2="320" stroke="#f97316" stroke-width="1" opacity="0.55"/><line x1="320" y1="144" x2="1130" y2="320" stroke="#f97316" stroke-width="1" opacity="0.55"/><line x1="320" y1="144" x2="1220" y2="320" stroke="#f97316" stroke-width="1" opacity="0.55"/><line x1="320" y1="144" x2="1310" y2="320" stroke="#f97316" stroke-width="1" opacity="0.55"/><line x1="320" y1="144" x2="1400" y2="320" stroke="#f97316" stroke-width="1" opacity="0.55"/><line x1="0" y1="148.2" x2="640" y2="148.2" stroke="#fb7185" stroke-width="1" opacity="0.55"/><line x1="0" y1="158.5" x2="640" y2="158.5" stroke="#fb7185" stroke-width="1" opacity="0.55"/><line x1="0" y1="174.1" x2="640" y2="174.1" stroke="#fb7185" stroke-width="1" opacity="0.55"/><line x1="0" y1="194.5" x2="640" y2="194.5" stroke="#fb7185" stroke-width="1" opacity="0.55"/><line x1="0" y1="219.5" x2="640" y2="219.5" stroke="#fb7185" stroke-width="1" opacity="0.55"/><line x1="0" y1="248.9" x2="640" y2="248.9" stroke="#fb7185" stroke-width="1" opacity="0.55"/><line x1="0" y1="282.4" x2="640" y2="282.4" stroke="#fb7185" stroke-width="1" opacity="0.55"/>
</svg>
